<svg width="712" height="127" xmlns="http://www.w3.org/2000/svg" id="typograssy"><style>#typograssy #text-pixels{animation:step 8280ms steps(276) infinite;}@keyframes step{to{transform:translateX(-3588px);}}#typograssy .pixel{width:10px;height:10px;rx:2px;ry:2px;stroke:rgba(27,31,35,0.06);stroke-width:2px;}#typograssy text{font-family:monospace;}#typograssy .l0{fill:#ebedf0;}#typograssy .l1{fill:#9be9a8;}#typograssy .l2{fill:#40c463;}#typograssy .l3{fill:#30a14e;}#typograssy .l4{fill:#216e39;}</style><rect width="712" height="127" stroke="#000000" fill="#ffffff"></rect><svg x="13" y="13" width="686" height="101"><g><rect class="pixel l0" x="0" y="0"></rect><rect class="pixel l0" x="0" y="13"></rect><rect class="pixel l0" x="0" y="26"></rect><rect class="pixel l0" x="0" y="39"></rect><rect class="pixel l0" x="0" y="52"></rect><rect class="pixel l0" x="0" y="65"></rect><rect class="pixel l0" x="0" y="78"></rect><rect class="pixel l0" x="13" y="0"></rect><rect class="pixel l0" x="13" y="13"></rect><rect class="pixel l0" x="13" y="26"></rect><rect class="pixel l0" x="13" y="39"></rect><rect class="pixel l0" x="13" y="52"></rect><rect class="pixel l0" x="13" y="65"></rect><rect class="pixel l0" x="13" y="78"></rect><rect class="pixel l0" x="26" y="0"></rect><rect class="pixel l0" x="26" y="13"></rect><rect class="pixel l0" x="26" y="26"></rect><rect class="pixel l0" x="26" y="39"></rect><rect class="pixel l0" x="26" y="52"></rect><rect class="pixel l0" x="26" y="65"></rect><rect class="pixel l0" x="26" y="78"></rect><rect class="pixel l0" x="39" y="0"></rect><rect class="pixel l0" x="39" y="13"></rect><rect class="pixel l0" x="39" y="26"></rect><rect class="pixel l0" x="39" y="39"></rect><rect class="pixel l0" x="39" y="52"></rect><rect class="pixel l0" x="39" y="65"></rect><rect class="pixel l0" x="39" y="78"></rect><rect class="pixel l0" x="52" y="0"></rect><rect class="pixel l0" x="52" y="13"></rect><rect class="pixel l0" x="52" y="26"></rect><rect class="pixel l0" x="52" y="39"></rect><rect class="pixel l0" x="52" y="52"></rect><rect class="pixel l0" x="52" y="65"></rect><rect class="pixel l0" x="52" y="78"></rect><rect class="pixel l0" x="65" y="0"></rect><rect class="pixel l0" x="65" y="13"></rect><rect class="pixel l0" x="65" y="26"></rect><rect class="pixel l0" x="65" y="39"></rect><rect class="pixel l0" x="65" y="52"></rect><rect class="pixel l0" x="65" y="65"></rect><rect class="pixel l0" x="65" y="78"></rect><rect class="pixel l0" x="78" y="0"></rect><rect class="pixel l0" x="78" y="13"></rect><rect class="pixel l0" x="78" y="26"></rect><rect class="pixel l0" x="78" y="39"></rect><rect class="pixel l0" x="78" y="52"></rect><rect class="pixel l0" x="78" y="65"></rect><rect class="pixel l0" x="78" y="78"></rect><rect class="pixel l0" x="91" y="0"></rect><rect class="pixel l0" x="91" y="13"></rect><rect class="pixel l0" x="91" y="26"></rect><rect class="pixel l0" x="91" y="39"></rect><rect class="pixel l0" x="91" y="52"></rect><rect class="pixel l0" x="91" y="65"></rect><rect class="pixel l0" x="91" y="78"></rect><rect class="pixel l0" x="104" y="0"></rect><rect class="pixel l0" x="104" y="13"></rect><rect class="pixel l0" x="104" y="26"></rect><rect class="pixel l0" x="104" y="39"></rect><rect class="pixel l0" x="104" y="52"></rect><rect class="pixel l0" x="104" y="65"></rect><rect class="pixel l0" x="104" y="78"></rect><rect class="pixel l0" x="117" y="0"></rect><rect class="pixel l0" x="117" y="13"></rect><rect class="pixel l0" x="117" y="26"></rect><rect class="pixel l0" x="117" y="39"></rect><rect class="pixel l0" x="117" y="52"></rect><rect class="pixel l0" x="117" y="65"></rect><rect class="pixel l0" x="117" y="78"></rect><rect class="pixel l0" x="130" y="0"></rect><rect class="pixel l0" x="130" y="13"></rect><rect class="pixel l0" x="130" y="26"></rect><rect class="pixel l0" x="130" y="39"></rect><rect class="pixel l0" x="130" y="52"></rect><rect class="pixel l0" x="130" y="65"></rect><rect class="pixel l0" x="130" y="78"></rect><rect class="pixel l0" x="143" y="0"></rect><rect class="pixel l0" x="143" y="13"></rect><rect class="pixel l0" x="143" y="26"></rect><rect class="pixel l0" x="143" y="39"></rect><rect class="pixel l0" x="143" y="52"></rect><rect class="pixel l0" x="143" y="65"></rect><rect class="pixel l0" x="143" y="78"></rect><rect class="pixel l0" x="156" y="0"></rect><rect class="pixel l0" x="156" y="13"></rect><rect class="pixel l0" x="156" y="26"></rect><rect class="pixel l0" x="156" y="39"></rect><rect class="pixel l0" x="156" y="52"></rect><rect class="pixel l0" x="156" y="65"></rect><rect class="pixel l0" x="156" y="78"></rect><rect class="pixel l0" x="169" y="0"></rect><rect class="pixel l0" x="169" y="13"></rect><rect class="pixel l0" x="169" y="26"></rect><rect class="pixel l0" x="169" y="39"></rect><rect class="pixel l0" x="169" y="52"></rect><rect class="pixel l0" x="169" y="65"></rect><rect class="pixel l0" x="169" y="78"></rect><rect class="pixel l0" x="182" y="0"></rect><rect class="pixel l0" x="182" y="13"></rect><rect class="pixel l0" x="182" y="26"></rect><rect class="pixel l0" x="182" y="39"></rect><rect class="pixel l0" x="182" y="52"></rect><rect class="pixel l0" x="182" y="65"></rect><rect class="pixel l0" x="182" y="78"></rect><rect class="pixel l0" x="195" y="0"></rect><rect class="pixel l0" x="195" y="13"></rect><rect class="pixel l0" x="195" y="26"></rect><rect class="pixel l0" x="195" y="39"></rect><rect class="pixel l0" x="195" y="52"></rect><rect class="pixel l0" x="195" y="65"></rect><rect class="pixel l0" x="195" y="78"></rect><rect class="pixel l0" x="208" y="0"></rect><rect class="pixel l0" x="208" y="13"></rect><rect class="pixel l0" x="208" y="26"></rect><rect class="pixel l0" x="208" y="39"></rect><rect class="pixel l0" x="208" y="52"></rect><rect class="pixel l0" x="208" y="65"></rect><rect class="pixel l0" x="208" y="78"></rect><rect class="pixel l0" x="221" y="0"></rect><rect class="pixel l0" x="221" y="13"></rect><rect class="pixel l0" x="221" y="26"></rect><rect class="pixel l0" x="221" y="39"></rect><rect class="pixel l0" x="221" y="52"></rect><rect class="pixel l0" x="221" y="65"></rect><rect class="pixel l0" x="221" y="78"></rect><rect class="pixel l0" x="234" y="0"></rect><rect class="pixel l0" x="234" y="13"></rect><rect class="pixel l0" x="234" y="26"></rect><rect class="pixel l0" x="234" y="39"></rect><rect class="pixel l0" x="234" y="52"></rect><rect class="pixel l0" x="234" y="65"></rect><rect class="pixel l0" x="234" y="78"></rect><rect class="pixel l0" x="247" y="0"></rect><rect class="pixel l0" x="247" y="13"></rect><rect class="pixel l0" x="247" y="26"></rect><rect class="pixel l0" x="247" y="39"></rect><rect class="pixel l0" x="247" y="52"></rect><rect class="pixel l0" x="247" y="65"></rect><rect class="pixel l0" x="247" y="78"></rect><rect class="pixel l0" x="260" y="0"></rect><rect class="pixel l0" x="260" y="13"></rect><rect class="pixel l0" x="260" y="26"></rect><rect class="pixel l0" x="260" y="39"></rect><rect class="pixel l0" x="260" y="52"></rect><rect class="pixel l0" x="260" y="65"></rect><rect class="pixel l0" x="260" y="78"></rect><rect class="pixel l0" x="273" y="0"></rect><rect class="pixel l0" x="273" y="13"></rect><rect class="pixel l0" x="273" y="26"></rect><rect class="pixel l0" x="273" y="39"></rect><rect class="pixel l0" x="273" y="52"></rect><rect class="pixel l0" x="273" y="65"></rect><rect class="pixel l0" x="273" y="78"></rect><rect class="pixel l0" x="286" y="0"></rect><rect class="pixel l0" x="286" y="13"></rect><rect class="pixel l0" x="286" y="26"></rect><rect class="pixel l0" x="286" y="39"></rect><rect class="pixel l0" x="286" y="52"></rect><rect class="pixel l0" x="286" y="65"></rect><rect class="pixel l0" x="286" y="78"></rect><rect class="pixel l0" x="299" y="0"></rect><rect class="pixel l0" x="299" y="13"></rect><rect class="pixel l0" x="299" y="26"></rect><rect class="pixel l0" x="299" y="39"></rect><rect class="pixel l0" x="299" y="52"></rect><rect class="pixel l0" x="299" y="65"></rect><rect class="pixel l0" x="299" y="78"></rect><rect class="pixel l0" x="312" y="0"></rect><rect class="pixel l0" x="312" y="13"></rect><rect class="pixel l0" x="312" y="26"></rect><rect class="pixel l0" x="312" y="39"></rect><rect class="pixel l0" x="312" y="52"></rect><rect class="pixel l0" x="312" y="65"></rect><rect class="pixel l0" x="312" y="78"></rect><rect class="pixel l0" x="325" y="0"></rect><rect class="pixel l0" x="325" y="13"></rect><rect class="pixel l0" x="325" y="26"></rect><rect class="pixel l0" x="325" y="39"></rect><rect class="pixel l0" x="325" y="52"></rect><rect class="pixel l0" x="325" y="65"></rect><rect class="pixel l0" x="325" y="78"></rect><rect class="pixel l0" x="338" y="0"></rect><rect class="pixel l0" x="338" y="13"></rect><rect class="pixel l0" x="338" y="26"></rect><rect class="pixel l0" x="338" y="39"></rect><rect class="pixel l0" x="338" y="52"></rect><rect class="pixel l0" x="338" y="65"></rect><rect class="pixel l0" x="338" y="78"></rect><rect class="pixel l0" x="351" y="0"></rect><rect class="pixel l0" x="351" y="13"></rect><rect class="pixel l0" x="351" y="26"></rect><rect class="pixel l0" x="351" y="39"></rect><rect class="pixel l0" x="351" y="52"></rect><rect class="pixel l0" x="351" y="65"></rect><rect class="pixel l0" x="351" y="78"></rect><rect class="pixel l0" x="364" y="0"></rect><rect class="pixel l0" x="364" y="13"></rect><rect class="pixel l0" x="364" y="26"></rect><rect class="pixel l0" x="364" y="39"></rect><rect class="pixel l0" x="364" y="52"></rect><rect class="pixel l0" x="364" y="65"></rect><rect class="pixel l0" x="364" y="78"></rect><rect class="pixel l0" x="377" y="0"></rect><rect class="pixel l0" x="377" y="13"></rect><rect class="pixel l0" x="377" y="26"></rect><rect class="pixel l0" x="377" y="39"></rect><rect class="pixel l0" x="377" y="52"></rect><rect class="pixel l0" x="377" y="65"></rect><rect class="pixel l0" x="377" y="78"></rect><rect class="pixel l0" x="390" y="0"></rect><rect class="pixel l0" x="390" y="13"></rect><rect class="pixel l0" x="390" y="26"></rect><rect class="pixel l0" x="390" y="39"></rect><rect class="pixel l0" x="390" y="52"></rect><rect class="pixel l0" x="390" y="65"></rect><rect class="pixel l0" x="390" y="78"></rect><rect class="pixel l0" x="403" y="0"></rect><rect class="pixel l0" x="403" y="13"></rect><rect class="pixel l0" x="403" y="26"></rect><rect class="pixel l0" x="403" y="39"></rect><rect class="pixel l0" x="403" y="52"></rect><rect class="pixel l0" x="403" y="65"></rect><rect class="pixel l0" x="403" y="78"></rect><rect class="pixel l0" x="416" y="0"></rect><rect class="pixel l0" x="416" y="13"></rect><rect class="pixel l0" x="416" y="26"></rect><rect class="pixel l0" x="416" y="39"></rect><rect class="pixel l0" x="416" y="52"></rect><rect class="pixel l0" x="416" y="65"></rect><rect class="pixel l0" x="416" y="78"></rect><rect class="pixel l0" x="429" y="0"></rect><rect class="pixel l0" x="429" y="13"></rect><rect class="pixel l0" x="429" y="26"></rect><rect class="pixel l0" x="429" y="39"></rect><rect class="pixel l0" x="429" y="52"></rect><rect class="pixel l0" x="429" y="65"></rect><rect class="pixel l0" x="429" y="78"></rect><rect class="pixel l0" x="442" y="0"></rect><rect class="pixel l0" x="442" y="13"></rect><rect class="pixel l0" x="442" y="26"></rect><rect class="pixel l0" x="442" y="39"></rect><rect class="pixel l0" x="442" y="52"></rect><rect class="pixel l0" x="442" y="65"></rect><rect class="pixel l0" x="442" y="78"></rect><rect class="pixel l0" x="455" y="0"></rect><rect class="pixel l0" x="455" y="13"></rect><rect class="pixel l0" x="455" y="26"></rect><rect class="pixel l0" x="455" y="39"></rect><rect class="pixel l0" x="455" y="52"></rect><rect class="pixel l0" x="455" y="65"></rect><rect class="pixel l0" x="455" y="78"></rect><rect class="pixel l0" x="468" y="0"></rect><rect class="pixel l0" x="468" y="13"></rect><rect class="pixel l0" x="468" y="26"></rect><rect class="pixel l0" x="468" y="39"></rect><rect class="pixel l0" x="468" y="52"></rect><rect class="pixel l0" x="468" y="65"></rect><rect class="pixel l0" x="468" y="78"></rect><rect class="pixel l0" x="481" y="0"></rect><rect class="pixel l0" x="481" y="13"></rect><rect class="pixel l0" x="481" y="26"></rect><rect class="pixel l0" x="481" y="39"></rect><rect class="pixel l0" x="481" y="52"></rect><rect class="pixel l0" x="481" y="65"></rect><rect class="pixel l0" x="481" y="78"></rect><rect class="pixel l0" x="494" y="0"></rect><rect class="pixel l0" x="494" y="13"></rect><rect class="pixel l0" x="494" y="26"></rect><rect class="pixel l0" x="494" y="39"></rect><rect class="pixel l0" x="494" y="52"></rect><rect class="pixel l0" x="494" y="65"></rect><rect class="pixel l0" x="494" y="78"></rect><rect class="pixel l0" x="507" y="0"></rect><rect class="pixel l0" x="507" y="13"></rect><rect class="pixel l0" x="507" y="26"></rect><rect class="pixel l0" x="507" y="39"></rect><rect class="pixel l0" x="507" y="52"></rect><rect class="pixel l0" x="507" y="65"></rect><rect class="pixel l0" x="507" y="78"></rect><rect class="pixel l0" x="520" y="0"></rect><rect class="pixel l0" x="520" y="13"></rect><rect class="pixel l0" x="520" y="26"></rect><rect class="pixel l0" x="520" y="39"></rect><rect class="pixel l0" x="520" y="52"></rect><rect class="pixel l0" x="520" y="65"></rect><rect class="pixel l0" x="520" y="78"></rect><rect class="pixel l0" x="533" y="0"></rect><rect class="pixel l0" x="533" y="13"></rect><rect class="pixel l0" x="533" y="26"></rect><rect class="pixel l0" x="533" y="39"></rect><rect class="pixel l0" x="533" y="52"></rect><rect class="pixel l0" x="533" y="65"></rect><rect class="pixel l0" x="533" y="78"></rect><rect class="pixel l0" x="546" y="0"></rect><rect class="pixel l0" x="546" y="13"></rect><rect class="pixel l0" x="546" y="26"></rect><rect class="pixel l0" x="546" y="39"></rect><rect class="pixel l0" x="546" y="52"></rect><rect class="pixel l0" x="546" y="65"></rect><rect class="pixel l0" x="546" y="78"></rect><rect class="pixel l0" x="559" y="0"></rect><rect class="pixel l0" x="559" y="13"></rect><rect class="pixel l0" x="559" y="26"></rect><rect class="pixel l0" x="559" y="39"></rect><rect class="pixel l0" x="559" y="52"></rect><rect class="pixel l0" x="559" y="65"></rect><rect class="pixel l0" x="559" y="78"></rect><rect class="pixel l0" x="572" y="0"></rect><rect class="pixel l0" x="572" y="13"></rect><rect class="pixel l0" x="572" y="26"></rect><rect class="pixel l0" x="572" y="39"></rect><rect class="pixel l0" x="572" y="52"></rect><rect class="pixel l0" x="572" y="65"></rect><rect class="pixel l0" x="572" y="78"></rect><rect class="pixel l0" x="585" y="0"></rect><rect class="pixel l0" x="585" y="13"></rect><rect class="pixel l0" x="585" y="26"></rect><rect class="pixel l0" x="585" y="39"></rect><rect class="pixel l0" x="585" y="52"></rect><rect class="pixel l0" x="585" y="65"></rect><rect class="pixel l0" x="585" y="78"></rect><rect class="pixel l0" x="598" y="0"></rect><rect class="pixel l0" x="598" y="13"></rect><rect class="pixel l0" x="598" y="26"></rect><rect class="pixel l0" x="598" y="39"></rect><rect class="pixel l0" x="598" y="52"></rect><rect class="pixel l0" x="598" y="65"></rect><rect class="pixel l0" x="598" y="78"></rect><rect class="pixel l0" x="611" y="0"></rect><rect class="pixel l0" x="611" y="13"></rect><rect class="pixel l0" x="611" y="26"></rect><rect class="pixel l0" x="611" y="39"></rect><rect class="pixel l0" x="611" y="52"></rect><rect class="pixel l0" x="611" y="65"></rect><rect class="pixel l0" x="611" y="78"></rect><rect class="pixel l0" x="624" y="0"></rect><rect class="pixel l0" x="624" y="13"></rect><rect class="pixel l0" x="624" y="26"></rect><rect class="pixel l0" x="624" y="39"></rect><rect class="pixel l0" x="624" y="52"></rect><rect class="pixel l0" x="624" y="65"></rect><rect class="pixel l0" x="624" y="78"></rect><rect class="pixel l0" x="637" y="0"></rect><rect class="pixel l0" x="637" y="13"></rect><rect class="pixel l0" x="637" y="26"></rect><rect class="pixel l0" x="637" y="39"></rect><rect class="pixel l0" x="637" y="52"></rect><rect class="pixel l0" x="637" y="65"></rect><rect class="pixel l0" x="637" y="78"></rect><rect class="pixel l0" x="650" y="0"></rect><rect class="pixel l0" x="650" y="13"></rect><rect class="pixel l0" x="650" y="26"></rect><rect class="pixel l0" x="650" y="39"></rect><rect class="pixel l0" x="650" y="52"></rect><rect class="pixel l0" x="650" y="65"></rect><rect class="pixel l0" x="650" y="78"></rect><rect class="pixel l0" x="663" y="0"></rect><rect class="pixel l0" x="663" y="13"></rect><rect class="pixel l0" x="663" y="26"></rect><rect class="pixel l0" x="663" y="39"></rect><rect class="pixel l0" x="663" y="52"></rect><rect class="pixel l0" x="663" y="65"></rect><rect class="pixel l0" x="663" y="78"></rect><rect class="pixel l0" x="676" y="0"></rect><rect class="pixel l0" x="676" y="13"></rect><rect class="pixel l0" x="676" y="26"></rect><rect class="pixel l0" x="676" y="39"></rect><rect class="pixel l0" x="676" y="52"></rect><rect class="pixel l0" x="676" y="65"></rect><rect class="pixel l0" x="676" y="78"></rect></g><g id="text-pixels"><rect class="pixel l2" x="26" y="13"></rect><rect class="pixel l2" x="3614" y="13"></rect><rect class="pixel l2" x="26" y="26"></rect><rect class="pixel l2" x="3614" y="26"></rect><rect class="pixel l4" x="26" y="39"></rect><rect class="pixel l4" x="3614" y="39"></rect><rect class="pixel l4" x="26" y="52"></rect><rect class="pixel l4" x="3614" y="52"></rect><rect class="pixel l3" x="26" y="65"></rect><rect class="pixel l3" x="3614" y="65"></rect><rect class="pixel l2" x="39" y="0"></rect><rect class="pixel l2" x="3627" y="0"></rect><rect class="pixel l3" x="39" y="78"></rect><rect class="pixel l3" x="3627" y="78"></rect><rect class="pixel l4" x="78" y="26"></rect><rect class="pixel l4" x="3666" y="26"></rect><rect class="pixel l3" x="91" y="13"></rect><rect class="pixel l3" x="3679" y="13"></rect><rect class="pixel l1" x="104" y="0"></rect><rect class="pixel l1" x="3692" y="0"></rect><rect class="pixel l3" x="117" y="13"></rect><rect class="pixel l3" x="3705" y="13"></rect><rect class="pixel l3" x="130" y="26"></rect><rect class="pixel l3" x="3718" y="26"></rect><rect class="pixel l4" x="182" y="39"></rect><rect class="pixel l4" x="3770" y="39"></rect><rect class="pixel l4" x="234" y="26"></rect><rect class="pixel l4" x="3822" y="26"></rect><rect class="pixel l1" x="247" y="13"></rect><rect class="pixel l1" x="3835" y="13"></rect><rect class="pixel l1" x="260" y="0"></rect><rect class="pixel l1" x="3848" y="0"></rect><rect class="pixel l4" x="273" y="13"></rect><rect class="pixel l4" x="3861" y="13"></rect><rect class="pixel l4" x="286" y="26"></rect><rect class="pixel l4" x="3874" y="26"></rect><rect class="pixel l2" x="325" y="0"></rect><rect class="pixel l2" x="3913" y="0"></rect><rect class="pixel l4" x="325" y="78"></rect><rect class="pixel l4" x="3913" y="78"></rect><rect class="pixel l4" x="338" y="13"></rect><rect class="pixel l4" x="3926" y="13"></rect><rect class="pixel l4" x="338" y="26"></rect><rect class="pixel l4" x="3926" y="26"></rect><rect class="pixel l1" x="338" y="39"></rect><rect class="pixel l1" x="3926" y="39"></rect><rect class="pixel l4" x="338" y="52"></rect><rect class="pixel l4" x="3926" y="52"></rect><rect class="pixel l2" x="338" y="65"></rect><rect class="pixel l2" x="3926" y="65"></rect><rect class="pixel l2" x="429" y="0"></rect><rect class="pixel l2" x="4017" y="0"></rect><rect class="pixel l4" x="429" y="13"></rect><rect class="pixel l4" x="4017" y="13"></rect><rect class="pixel l1" x="429" y="26"></rect><rect class="pixel l1" x="4017" y="26"></rect><rect class="pixel l1" x="442" y="39"></rect><rect class="pixel l1" x="4030" y="39"></rect><rect class="pixel l1" x="442" y="52"></rect><rect class="pixel l1" x="4030" y="52"></rect><rect class="pixel l4" x="442" y="65"></rect><rect class="pixel l4" x="4030" y="65"></rect><rect class="pixel l3" x="442" y="78"></rect><rect class="pixel l3" x="4030" y="78"></rect><rect class="pixel l4" x="455" y="0"></rect><rect class="pixel l4" x="4043" y="0"></rect><rect class="pixel l2" x="455" y="13"></rect><rect class="pixel l2" x="4043" y="13"></rect><rect class="pixel l3" x="455" y="26"></rect><rect class="pixel l3" x="4043" y="26"></rect><rect class="pixel l1" x="481" y="39"></rect><rect class="pixel l1" x="4069" y="39"></rect><rect class="pixel l4" x="481" y="52"></rect><rect class="pixel l4" x="4069" y="52"></rect><rect class="pixel l2" x="481" y="65"></rect><rect class="pixel l2" x="4069" y="65"></rect><rect class="pixel l4" x="494" y="26"></rect><rect class="pixel l4" x="4082" y="26"></rect><rect class="pixel l1" x="494" y="78"></rect><rect class="pixel l1" x="4082" y="78"></rect><rect class="pixel l3" x="507" y="39"></rect><rect class="pixel l3" x="4095" y="39"></rect><rect class="pixel l2" x="507" y="52"></rect><rect class="pixel l2" x="4095" y="52"></rect><rect class="pixel l1" x="507" y="65"></rect><rect class="pixel l1" x="4095" y="65"></rect><rect class="pixel l3" x="546" y="0"></rect><rect class="pixel l3" x="4134" y="0"></rect><rect class="pixel l3" x="546" y="13"></rect><rect class="pixel l3" x="4134" y="13"></rect><rect class="pixel l1" x="546" y="26"></rect><rect class="pixel l1" x="4134" y="26"></rect><rect class="pixel l2" x="546" y="39"></rect><rect class="pixel l2" x="4134" y="39"></rect><rect class="pixel l2" x="546" y="52"></rect><rect class="pixel l2" x="4134" y="52"></rect><rect class="pixel l1" x="546" y="78"></rect><rect class="pixel l1" x="4134" y="78"></rect><rect class="pixel l2" x="637" y="0"></rect><rect class="pixel l2" x="4225" y="0"></rect><rect class="pixel l3" x="637" y="78"></rect><rect class="pixel l3" x="4225" y="78"></rect><rect class="pixel l3" x="650" y="0"></rect><rect class="pixel l3" x="4238" y="0"></rect><rect class="pixel l3" x="650" y="13"></rect><rect class="pixel l3" x="4238" y="13"></rect><rect class="pixel l2" x="650" y="26"></rect><rect class="pixel l2" x="4238" y="26"></rect><rect class="pixel l2" x="650" y="39"></rect><rect class="pixel l2" x="4238" y="39"></rect><rect class="pixel l3" x="650" y="52"></rect><rect class="pixel l3" x="4238" y="52"></rect><rect class="pixel l2" x="650" y="65"></rect><rect class="pixel l2" x="4238" y="65"></rect><rect class="pixel l1" x="650" y="78"></rect><rect class="pixel l1" x="4238" y="78"></rect><rect class="pixel l2" x="663" y="0"></rect><rect class="pixel l2" x="4251" y="0"></rect><rect class="pixel l2" x="663" y="78"></rect><rect class="pixel l2" x="4251" y="78"></rect><rect class="pixel l4" x="702" y="0"></rect><rect class="pixel l2" x="702" y="13"></rect><rect class="pixel l1" x="741" y="26"></rect><rect class="pixel l3" x="741" y="39"></rect><rect class="pixel l4" x="741" y="52"></rect><rect class="pixel l3" x="741" y="65"></rect><rect class="pixel l2" x="741" y="78"></rect><rect class="pixel l2" x="754" y="26"></rect><rect class="pixel l1" x="754" y="39"></rect><rect class="pixel l2" x="754" y="52"></rect><rect class="pixel l2" x="754" y="65"></rect><rect class="pixel l3" x="767" y="39"></rect><rect class="pixel l4" x="767" y="52"></rect><rect class="pixel l4" x="767" y="65"></rect><rect class="pixel l3" x="767" y="78"></rect><rect class="pixel l1" x="845" y="26"></rect><rect class="pixel l3" x="845" y="65"></rect><rect class="pixel l1" x="858" y="26"></rect><rect class="pixel l3" x="858" y="52"></rect><rect class="pixel l2" x="858" y="78"></rect><rect class="pixel l2" x="871" y="39"></rect><rect class="pixel l1" x="871" y="52"></rect><rect class="pixel l2" x="871" y="65"></rect><rect class="pixel l1" x="871" y="78"></rect><rect class="pixel l4" x="949" y="26"></rect><rect class="pixel l1" x="949" y="39"></rect><rect class="pixel l2" x="949" y="52"></rect><rect class="pixel l1" x="949" y="65"></rect><rect class="pixel l3" x="949" y="78"></rect><rect class="pixel l3" x="962" y="39"></rect><rect class="pixel l3" x="975" y="26"></rect><rect class="pixel l1" x="1001" y="26"></rect><rect class="pixel l1" x="1001" y="65"></rect><rect class="pixel l2" x="1014" y="26"></rect><rect class="pixel l3" x="1014" y="52"></rect><rect class="pixel l1" x="1014" y="78"></rect><rect class="pixel l3" x="1027" y="39"></rect><rect class="pixel l1" x="1027" y="52"></rect><rect class="pixel l4" x="1027" y="65"></rect><rect class="pixel l3" x="1027" y="78"></rect><rect class="pixel l3" x="1053" y="26"></rect><rect class="pixel l2" x="1053" y="39"></rect><rect class="pixel l1" x="1053" y="52"></rect><rect class="pixel l2" x="1053" y="65"></rect><rect class="pixel l1" x="1053" y="78"></rect><rect class="pixel l4" x="1066" y="26"></rect><rect class="pixel l1" x="1079" y="39"></rect><rect class="pixel l4" x="1079" y="52"></rect><rect class="pixel l2" x="1079" y="65"></rect><rect class="pixel l2" x="1079" y="78"></rect><rect class="pixel l3" x="1105" y="39"></rect><rect class="pixel l4" x="1105" y="52"></rect><rect class="pixel l4" x="1105" y="65"></rect><rect class="pixel l4" x="1118" y="26"></rect><rect class="pixel l1" x="1118" y="78"></rect><rect class="pixel l2" x="1131" y="0"></rect><rect class="pixel l4" x="1131" y="13"></rect><rect class="pixel l4" x="1131" y="26"></rect><rect class="pixel l4" x="1131" y="39"></rect><rect class="pixel l1" x="1131" y="52"></rect><rect class="pixel l2" x="1131" y="65"></rect><rect class="pixel l4" x="1131" y="78"></rect><rect class="pixel l4" x="1157" y="39"></rect><rect class="pixel l1" x="1157" y="52"></rect><rect class="pixel l2" x="1157" y="65"></rect><rect class="pixel l4" x="1170" y="26"></rect><rect class="pixel l1" x="1170" y="78"></rect><rect class="pixel l2" x="1183" y="39"></rect><rect class="pixel l2" x="1183" y="52"></rect><rect class="pixel l3" x="1183" y="65"></rect><rect class="pixel l1" x="1209" y="26"></rect><rect class="pixel l4" x="1209" y="39"></rect><rect class="pixel l2" x="1209" y="52"></rect><rect class="pixel l1" x="1209" y="65"></rect><rect class="pixel l3" x="1209" y="78"></rect><rect class="pixel l4" x="1222" y="26"></rect><rect class="pixel l2" x="1222" y="39"></rect><rect class="pixel l1" x="1222" y="52"></rect><rect class="pixel l3" x="1222" y="65"></rect><rect class="pixel l1" x="1235" y="39"></rect><rect class="pixel l3" x="1235" y="52"></rect><rect class="pixel l4" x="1235" y="65"></rect><rect class="pixel l2" x="1235" y="78"></rect><rect class="pixel l1" x="1313" y="26"></rect><rect class="pixel l2" x="1313" y="39"></rect><rect class="pixel l2" x="1313" y="52"></rect><rect class="pixel l1" x="1313" y="65"></rect><rect class="pixel l2" x="1313" y="78"></rect><rect class="pixel l1" x="1326" y="26"></rect><rect class="pixel l4" x="1339" y="39"></rect><rect class="pixel l2" x="1339" y="52"></rect><rect class="pixel l4" x="1339" y="65"></rect><rect class="pixel l2" x="1339" y="78"></rect><rect class="pixel l1" x="1365" y="39"></rect><rect class="pixel l1" x="1365" y="52"></rect><rect class="pixel l4" x="1365" y="65"></rect><rect class="pixel l1" x="1378" y="26"></rect><rect class="pixel l4" x="1378" y="52"></rect><rect class="pixel l4" x="1378" y="78"></rect><rect class="pixel l1" x="1391" y="39"></rect><rect class="pixel l1" x="1391" y="52"></rect><rect class="pixel l4" x="1391" y="78"></rect><rect class="pixel l1" x="1417" y="26"></rect><rect class="pixel l1" x="1417" y="39"></rect><rect class="pixel l1" x="1417" y="52"></rect><rect class="pixel l3" x="1417" y="65"></rect><rect class="pixel l3" x="1417" y="78"></rect><rect class="pixel l1" x="1430" y="39"></rect><rect class="pixel l4" x="1443" y="26"></rect><rect class="pixel l1" x="1469" y="39"></rect><rect class="pixel l3" x="1469" y="52"></rect><rect class="pixel l1" x="1469" y="65"></rect><rect class="pixel l1" x="1482" y="26"></rect><rect class="pixel l4" x="1482" y="78"></rect><rect class="pixel l3" x="1495" y="0"></rect><rect class="pixel l1" x="1495" y="13"></rect><rect class="pixel l2" x="1495" y="26"></rect><rect class="pixel l1" x="1495" y="39"></rect><rect class="pixel l4" x="1495" y="52"></rect><rect class="pixel l1" x="1495" y="65"></rect><rect class="pixel l3" x="1495" y="78"></rect><rect class="pixel l4" x="1521" y="78"></rect><rect class="pixel l3" x="1534" y="65"></rect><rect class="pixel l3" x="1625" y="26"></rect><rect class="pixel l3" x="1638" y="0"></rect><rect class="pixel l1" x="1638" y="13"></rect><rect class="pixel l2" x="1638" y="26"></rect><rect class="pixel l3" x="1638" y="39"></rect><rect class="pixel l2" x="1638" y="52"></rect><rect class="pixel l2" x="1638" y="65"></rect><rect class="pixel l4" x="1638" y="78"></rect><rect class="pixel l4" x="1651" y="0"></rect><rect class="pixel l1" x="1651" y="26"></rect><rect class="pixel l3" x="1690" y="0"></rect><rect class="pixel l1" x="1690" y="26"></rect><rect class="pixel l2" x="1690" y="39"></rect><rect class="pixel l2" x="1690" y="52"></rect><rect class="pixel l3" x="1690" y="65"></rect><rect class="pixel l4" x="1690" y="78"></rect><rect class="pixel l4" x="1729" y="26"></rect><rect class="pixel l4" x="1729" y="39"></rect><rect class="pixel l2" x="1729" y="52"></rect><rect class="pixel l4" x="1729" y="65"></rect><rect class="pixel l2" x="1729" y="78"></rect><rect class="pixel l1" x="1742" y="26"></rect><rect class="pixel l1" x="1755" y="39"></rect><rect class="pixel l2" x="1755" y="52"></rect><rect class="pixel l3" x="1755" y="65"></rect><rect class="pixel l4" x="1755" y="78"></rect><rect class="pixel l3" x="1781" y="39"></rect><rect class="pixel l3" x="1781" y="52"></rect><rect class="pixel l2" x="1781" y="65"></rect><rect class="pixel l4" x="1794" y="26"></rect><rect class="pixel l3" x="1794" y="78"></rect><rect class="pixel l2" x="1807" y="0"></rect><rect class="pixel l1" x="1807" y="13"></rect><rect class="pixel l2" x="1807" y="26"></rect><rect class="pixel l1" x="1807" y="39"></rect><rect class="pixel l2" x="1807" y="52"></rect><rect class="pixel l2" x="1807" y="65"></rect><rect class="pixel l4" x="1807" y="78"></rect><rect class="pixel l2" x="1846" y="0"></rect><rect class="pixel l2" x="1846" y="26"></rect><rect class="pixel l1" x="1846" y="39"></rect><rect class="pixel l2" x="1846" y="52"></rect><rect class="pixel l1" x="1846" y="65"></rect><rect class="pixel l3" x="1846" y="78"></rect><rect class="pixel l3" x="1885" y="26"></rect><rect class="pixel l2" x="1885" y="39"></rect><rect class="pixel l1" x="1885" y="52"></rect><rect class="pixel l2" x="1885" y="65"></rect><rect class="pixel l4" x="1885" y="78"></rect><rect class="pixel l2" x="1898" y="26"></rect><rect class="pixel l3" x="1911" y="39"></rect><rect class="pixel l4" x="1911" y="52"></rect><rect class="pixel l3" x="1911" y="65"></rect><rect class="pixel l1" x="1911" y="78"></rect><rect class="pixel l2" x="1937" y="39"></rect><rect class="pixel l2" x="1937" y="78"></rect><rect class="pixel l3" x="1950" y="26"></rect><rect class="pixel l4" x="1950" y="52"></rect><rect class="pixel l3" x="1950" y="78"></rect><rect class="pixel l4" x="1963" y="26"></rect><rect class="pixel l1" x="1963" y="39"></rect><rect class="pixel l1" x="1963" y="52"></rect><rect class="pixel l3" x="1963" y="65"></rect><rect class="pixel l4" x="2041" y="39"></rect><rect class="pixel l3" x="2041" y="78"></rect><rect class="pixel l4" x="2054" y="26"></rect><rect class="pixel l1" x="2054" y="52"></rect><rect class="pixel l2" x="2054" y="78"></rect><rect class="pixel l2" x="2067" y="26"></rect><rect class="pixel l2" x="2067" y="65"></rect><rect class="pixel l2" x="2093" y="39"></rect><rect class="pixel l3" x="2093" y="52"></rect><rect class="pixel l2" x="2093" y="65"></rect><rect class="pixel l4" x="2106" y="26"></rect><rect class="pixel l2" x="2106" y="78"></rect><rect class="pixel l2" x="2119" y="39"></rect><rect class="pixel l1" x="2119" y="52"></rect><rect class="pixel l3" x="2119" y="65"></rect><rect class="pixel l2" x="2145" y="26"></rect><rect class="pixel l4" x="2145" y="39"></rect><rect class="pixel l2" x="2145" y="52"></rect><rect class="pixel l2" x="2145" y="65"></rect><rect class="pixel l3" x="2145" y="78"></rect><rect class="pixel l1" x="2158" y="26"></rect><rect class="pixel l2" x="2158" y="39"></rect><rect class="pixel l1" x="2158" y="52"></rect><rect class="pixel l2" x="2158" y="65"></rect><rect class="pixel l2" x="2171" y="39"></rect><rect class="pixel l4" x="2171" y="52"></rect><rect class="pixel l3" x="2171" y="65"></rect><rect class="pixel l1" x="2171" y="78"></rect><rect class="pixel l4" x="2197" y="39"></rect><rect class="pixel l2" x="2197" y="52"></rect><rect class="pixel l3" x="2197" y="65"></rect><rect class="pixel l4" x="2210" y="26"></rect><rect class="pixel l3" x="2210" y="52"></rect><rect class="pixel l3" x="2210" y="78"></rect><rect class="pixel l4" x="2223" y="39"></rect><rect class="pixel l4" x="2223" y="52"></rect><rect class="pixel l3" x="2223" y="78"></rect><rect class="pixel l4" x="2249" y="26"></rect><rect class="pixel l2" x="2262" y="13"></rect><rect class="pixel l2" x="2262" y="26"></rect><rect class="pixel l2" x="2262" y="39"></rect><rect class="pixel l4" x="2262" y="52"></rect><rect class="pixel l3" x="2262" y="65"></rect><rect class="pixel l1" x="2262" y="78"></rect><rect class="pixel l4" x="2275" y="26"></rect><rect class="pixel l4" x="2275" y="78"></rect><rect class="pixel l4" x="2301" y="0"></rect><rect class="pixel l4" x="2301" y="13"></rect><rect class="pixel l4" x="2301" y="26"></rect><rect class="pixel l4" x="2301" y="39"></rect><rect class="pixel l1" x="2301" y="52"></rect><rect class="pixel l3" x="2301" y="65"></rect><rect class="pixel l2" x="2301" y="78"></rect><rect class="pixel l2" x="2314" y="26"></rect><rect class="pixel l4" x="2327" y="39"></rect><rect class="pixel l1" x="2327" y="52"></rect><rect class="pixel l3" x="2327" y="65"></rect><rect class="pixel l3" x="2327" y="78"></rect><rect class="pixel l2" x="2366" y="0"></rect><rect class="pixel l2" x="2366" y="26"></rect><rect class="pixel l1" x="2366" y="39"></rect><rect class="pixel l3" x="2366" y="52"></rect><rect class="pixel l1" x="2366" y="65"></rect><rect class="pixel l3" x="2366" y="78"></rect><rect class="pixel l2" x="2405" y="26"></rect><rect class="pixel l3" x="2405" y="39"></rect><rect class="pixel l4" x="2405" y="52"></rect><rect class="pixel l4" x="2405" y="65"></rect><rect class="pixel l2" x="2405" y="78"></rect><rect class="pixel l1" x="2418" y="26"></rect><rect class="pixel l1" x="2431" y="39"></rect><rect class="pixel l1" x="2431" y="52"></rect><rect class="pixel l3" x="2431" y="65"></rect><rect class="pixel l3" x="2431" y="78"></rect><rect class="pixel l3" x="2457" y="39"></rect><rect class="pixel l4" x="2457" y="78"></rect><rect class="pixel l4" x="2470" y="26"></rect><rect class="pixel l4" x="2470" y="52"></rect><rect class="pixel l4" x="2470" y="78"></rect><rect class="pixel l4" x="2483" y="26"></rect><rect class="pixel l1" x="2483" y="39"></rect><rect class="pixel l2" x="2483" y="52"></rect><rect class="pixel l4" x="2483" y="65"></rect><rect class="pixel l1" x="2561" y="26"></rect><rect class="pixel l3" x="2574" y="0"></rect><rect class="pixel l2" x="2574" y="13"></rect><rect class="pixel l1" x="2574" y="26"></rect><rect class="pixel l2" x="2574" y="39"></rect><rect class="pixel l2" x="2574" y="52"></rect><rect class="pixel l4" x="2574" y="65"></rect><rect class="pixel l4" x="2574" y="78"></rect><rect class="pixel l3" x="2587" y="0"></rect><rect class="pixel l1" x="2587" y="26"></rect><rect class="pixel l2" x="2613" y="26"></rect><rect class="pixel l4" x="2613" y="39"></rect><rect class="pixel l4" x="2613" y="52"></rect><rect class="pixel l2" x="2613" y="65"></rect><rect class="pixel l2" x="2613" y="78"></rect><rect class="pixel l3" x="2626" y="78"></rect><rect class="pixel l2" x="2639" y="26"></rect><rect class="pixel l4" x="2639" y="39"></rect><rect class="pixel l3" x="2639" y="52"></rect><rect class="pixel l4" x="2639" y="65"></rect><rect class="pixel l3" x="2639" y="78"></rect><rect class="pixel l3" x="2665" y="26"></rect><rect class="pixel l2" x="2665" y="39"></rect><rect class="pixel l1" x="2665" y="52"></rect><rect class="pixel l1" x="2665" y="65"></rect><rect class="pixel l2" x="2665" y="78"></rect><rect class="pixel l1" x="2678" y="26"></rect><rect class="pixel l1" x="2691" y="39"></rect><rect class="pixel l3" x="2691" y="52"></rect><rect class="pixel l3" x="2691" y="65"></rect><rect class="pixel l1" x="2691" y="78"></rect><rect class="pixel l4" x="2769" y="26"></rect><rect class="pixel l2" x="2782" y="13"></rect><rect class="pixel l3" x="2782" y="26"></rect><rect class="pixel l3" x="2782" y="39"></rect><rect class="pixel l3" x="2782" y="52"></rect><rect class="pixel l4" x="2782" y="65"></rect><rect class="pixel l4" x="2782" y="78"></rect><rect class="pixel l2" x="2795" y="26"></rect><rect class="pixel l2" x="2795" y="78"></rect><rect class="pixel l2" x="2821" y="39"></rect><rect class="pixel l1" x="2821" y="52"></rect><rect class="pixel l2" x="2821" y="65"></rect><rect class="pixel l2" x="2834" y="26"></rect><rect class="pixel l3" x="2834" y="78"></rect><rect class="pixel l3" x="2847" y="39"></rect><rect class="pixel l3" x="2847" y="52"></rect><rect class="pixel l4" x="2847" y="65"></rect><rect class="pixel l2" x="2925" y="39"></rect><rect class="pixel l4" x="2925" y="52"></rect><rect class="pixel l2" x="2925" y="65"></rect><rect class="pixel l3" x="2938" y="26"></rect><rect class="pixel l3" x="2938" y="78"></rect><rect class="pixel l4" x="2951" y="0"></rect><rect class="pixel l2" x="2951" y="13"></rect><rect class="pixel l4" x="2951" y="26"></rect><rect class="pixel l2" x="2951" y="39"></rect><rect class="pixel l2" x="2951" y="52"></rect><rect class="pixel l3" x="2951" y="65"></rect><rect class="pixel l4" x="2951" y="78"></rect><rect class="pixel l1" x="2977" y="39"></rect><rect class="pixel l1" x="2977" y="52"></rect><rect class="pixel l1" x="2977" y="65"></rect><rect class="pixel l3" x="2990" y="26"></rect><rect class="pixel l1" x="2990" y="78"></rect><rect class="pixel l4" x="3003" y="39"></rect><rect class="pixel l4" x="3003" y="52"></rect><rect class="pixel l3" x="3003" y="65"></rect><rect class="pixel l1" x="3081" y="39"></rect><rect class="pixel l2" x="3081" y="52"></rect><rect class="pixel l2" x="3081" y="65"></rect><rect class="pixel l4" x="3094" y="26"></rect><rect class="pixel l1" x="3094" y="52"></rect><rect class="pixel l2" x="3094" y="78"></rect><rect class="pixel l2" x="3107" y="39"></rect><rect class="pixel l1" x="3107" y="52"></rect><rect class="pixel l2" x="3107" y="78"></rect><rect class="pixel l1" x="3133" y="26"></rect><rect class="pixel l4" x="3133" y="39"></rect><rect class="pixel l3" x="3133" y="52"></rect><rect class="pixel l3" x="3146" y="65"></rect><rect class="pixel l4" x="3146" y="78"></rect><rect class="pixel l4" x="3159" y="26"></rect><rect class="pixel l3" x="3159" y="39"></rect><rect class="pixel l1" x="3159" y="52"></rect><rect class="pixel l2" x="3185" y="39"></rect><rect class="pixel l1" x="3185" y="52"></rect><rect class="pixel l4" x="3185" y="65"></rect><rect class="pixel l2" x="3198" y="26"></rect><rect class="pixel l4" x="3198" y="52"></rect><rect class="pixel l2" x="3198" y="78"></rect><rect class="pixel l3" x="3211" y="39"></rect><rect class="pixel l3" x="3211" y="52"></rect><rect class="pixel l2" x="3211" y="78"></rect><rect class="pixel l4" x="3237" y="26"></rect><rect class="pixel l2" x="3237" y="39"></rect><rect class="pixel l4" x="3237" y="52"></rect><rect class="pixel l2" x="3237" y="65"></rect><rect class="pixel l3" x="3237" y="78"></rect><rect class="pixel l4" x="3250" y="39"></rect><rect class="pixel l2" x="3263" y="26"></rect><rect class="pixel l1" x="3289" y="26"></rect><rect class="pixel l1" x="3289" y="39"></rect><rect class="pixel l4" x="3289" y="78"></rect><rect class="pixel l1" x="3302" y="52"></rect><rect class="pixel l1" x="3302" y="78"></rect><rect class="pixel l1" x="3315" y="26"></rect><rect class="pixel l4" x="3315" y="39"></rect><rect class="pixel l2" x="3315" y="52"></rect><rect class="pixel l3" x="3315" y="65"></rect><rect class="pixel l4" x="3393" y="39"></rect><rect class="pixel l2" x="3393" y="52"></rect><rect class="pixel l2" x="3393" y="65"></rect><rect class="pixel l4" x="3406" y="26"></rect><rect class="pixel l4" x="3406" y="78"></rect><rect class="pixel l1" x="3419" y="0"></rect><rect class="pixel l4" x="3419" y="13"></rect><rect class="pixel l1" x="3419" y="26"></rect><rect class="pixel l3" x="3419" y="39"></rect><rect class="pixel l2" x="3419" y="52"></rect><rect class="pixel l2" x="3419" y="65"></rect><rect class="pixel l2" x="3419" y="78"></rect><rect class="pixel l4" x="3445" y="26"></rect><rect class="pixel l3" x="3445" y="65"></rect><rect class="pixel l4" x="3458" y="26"></rect><rect class="pixel l1" x="3458" y="52"></rect><rect class="pixel l2" x="3458" y="78"></rect><rect class="pixel l1" x="3471" y="39"></rect><rect class="pixel l2" x="3471" y="52"></rect><rect class="pixel l2" x="3471" y="65"></rect><rect class="pixel l2" x="3471" y="78"></rect><rect class="pixel l2" x="3497" y="26"></rect><rect class="pixel l1" x="3497" y="39"></rect><rect class="pixel l2" x="3497" y="78"></rect><rect class="pixel l4" x="3510" y="52"></rect><rect class="pixel l4" x="3510" y="78"></rect><rect class="pixel l3" x="3523" y="26"></rect><rect class="pixel l1" x="3523" y="39"></rect><rect class="pixel l4" x="3523" y="52"></rect><rect class="pixel l2" x="3523" y="65"></rect><rect class="pixel l3" x="3562" y="78"></rect></g></svg><g transform="translate(13, 117)"><text font-size="13"></text></g><g transform="translate(621, 107)"><rect class="pixel l0" x="0" y="0"></rect><rect class="pixel l1" x="13" y="0"></rect><rect class="pixel l2" x="26" y="0"></rect><rect class="pixel l3" x="39" y="0"></rect><rect class="pixel l4" x="52" y="0"></rect></g></svg>